<?xml version="1.0" encoding="UTF-8"?>
<svg version="1.1" xmlns="http://www.w3.org/2000/svg" width="220" height="135">
<path d="M0 0 C0.97784454 -0.00570007 1.95568909 -0.01140015 2.96316528 -0.01727295 C5.02198226 -0.02665215 7.08081376 -0.03322844 9.13964844 -0.03710938 C12.21577757 -0.04674335 15.29121643 -0.07780634 18.3671875 -0.109375 C31.63073031 -0.17801118 44.31473922 0.94419329 57.3828125 3.203125 C56.52195254 8.27732185 54.5711956 12.00848858 52.0703125 16.453125 C51.6266333 17.24380371 51.1829541 18.03448242 50.72583008 18.84912109 C39.52870482 38.41151224 24.99424653 56.01384641 9.3828125 72.203125 C8.81916992 72.78868164 8.25552734 73.37423828 7.67480469 73.97753906 C0.30227258 81.59432955 -7.22168192 88.70490882 -15.6171875 95.203125 C-16.63296875 96.01265625 -17.64875 96.8221875 -18.6953125 97.65625 C-37.80391397 112.79275694 -59.82889459 126.14604324 -83.6171875 132.203125 C-84.64948486 132.46730225 -85.68178223 132.73147949 -86.74536133 133.00366211 C-95.30359898 135.02599564 -103.40156317 135.69217832 -112.1796875 135.640625 C-113.39076172 135.66060547 -114.60183594 135.68058594 -115.84960938 135.70117188 C-128.09130068 135.694615 -139.00539242 133.00208643 -148.6171875 125.203125 C-149.24238281 124.70167969 -149.86757812 124.20023437 -150.51171875 123.68359375 C-156.95328304 117.9156571 -162.0882791 108.8978232 -162.77832031 100.16357422 C-163.14803574 81.18341614 -163.14803574 81.18341614 -159.6171875 73.203125 C-159.30007812 72.42453125 -158.98296875 71.6459375 -158.65625 70.84375 C-146.39661912 43.54216065 -118.26434621 27.94944863 -91.57421875 17.63671875 C-62.4481079 6.92848168 -31.09967854 0.14597702 0 0 Z " fill="#ED1C25" transform="translate(162.6171875,-0.203125)"/>
<path d="M0 0 C3.125 0.375 3.125 0.375 6 1 C6 3.31 6 5.62 6 8 C6.59167969 7.94199219 7.18335937 7.88398437 7.79296875 7.82421875 C14.30444792 7.45243772 14.30444792 7.45243772 17.9375 10.3125 C22.42054786 16.15404721 22.33554776 19.71175485 22.3125 26.875 C22.33666992 28.36580078 22.33666992 28.36580078 22.36132812 29.88671875 C22.3675105 39.12318205 22.3675105 39.12318205 19 43 C16.00445646 45.8691493 13.74158183 46.49815854 9.625 46.625 C8.70976563 46.67914063 7.79453125 46.73328125 6.8515625 46.7890625 C2.51314607 45.58856919 0.33213708 42.77110108 -2 39 C-2.77348665 36.06461401 -2.75353079 33.31428719 -2.65625 30.29296875 C-2.65250366 29.48636307 -2.64875732 28.67975739 -2.64489746 27.84870911 C-2.63153169 26.15686313 -2.60385199 24.46507499 -2.5625 22.77368164 C-2.49975391 20.177317 -2.48050912 17.58337853 -2.46875 14.98632812 C-2.45042437 13.33851187 -2.4296774 11.69072037 -2.40625 10.04296875 C-2.39775024 9.26592087 -2.38925049 8.48887299 -2.38049316 7.6882782 C-2.23454523 2.23454523 -2.23454523 2.23454523 0 0 Z " fill="#FEF6F7" transform="translate(71,44)"/>
<path d="M0 0 C0.87269531 -0.01417969 1.74539062 -0.02835938 2.64453125 -0.04296875 C6.47789895 0.3044486 8.33153216 1.23836559 10.91015625 4.09765625 C12.88513141 8.87504265 12.66029151 13.50773065 12.625 18.625 C12.6549707 20.16124023 12.6549707 20.16124023 12.68554688 21.72851562 C12.68158223 27.85389147 12.34055951 31.56881718 8.1875 36.1875 C3.96568108 39.00204595 0.14719791 38.99434081 -4.8125 38.1875 C-7.875 35.75 -7.875 35.75 -9.8125 33.1875 C-10.1425 32.8575 -10.4725 32.5275 -10.8125 32.1875 C-11.35646172 27.37210113 -11.53740311 23.43019105 -9.0625 19.1875 C-4.61900237 15.23772433 -1.7929534 14.95748256 4.1875 15.1875 C3.5275 12.8775 2.8675 10.5675 2.1875 8.1875 C-0.26474694 8.29363836 -0.26474694 8.29363836 -2.8125 9.1875 C-4.18716625 11.66386012 -4.18716625 11.66386012 -4.8125 14.1875 C-6.47861905 14.230221 -8.14632885 14.22813832 -9.8125 14.1875 C-10.8125 13.1875 -10.8125 13.1875 -11.1875 9.9375 C-10.72328545 5.29535453 -9.32718218 4.10211449 -5.8125 1.1875 C-4.16504404 -0.45995596 -2.25914549 0.0165384 0 0 Z " fill="#FEF8F9" transform="translate(105.8125,51.8125)"/>
<path d="M0 0 C2.82424288 2.19022918 4.41508603 3.83017207 6 7 C6.32295365 10.90978317 6.32448928 14.82853103 6.375 18.75 C6.41238281 19.83539063 6.44976562 20.92078125 6.48828125 22.0390625 C6.5872128 31.03084095 6.5872128 31.03084095 3.6015625 34.703125 C-0.39639192 38.23285053 -3.21078364 38.53312021 -8.4453125 38.46484375 C-12.20617595 37.78052762 -13.81845223 36.19212514 -16 33.13671875 C-17.75526472 29.38621172 -17.88953841 26.01799979 -17 22 C-14.93240751 18.52939832 -12.89055567 16.22274607 -9 15 C-6.66796188 14.9222654 -4.33160941 14.91032272 -2 15 C-2.66 12.69 -3.32 10.38 -4 8 C-5.65 8 -7.3 8 -9 8 C-9.66 9.98 -10.32 11.96 -11 14 C-12.66611905 14.042721 -14.33382885 14.04063832 -16 14 C-17 13 -17 13 -17.5 9.8125 C-16.98686847 5.89987208 -16.77928444 5.17940016 -14.125 2.5625 C-9.7304152 -0.76023485 -5.31595783 -1.23229479 0 0 Z " fill="#FEF9F9" transform="translate(61,52)"/>
<path d="M0 0 C3.6328341 2.11915323 5.48550862 4.12085668 7 8 C7.24291992 11.1003418 7.24291992 11.1003418 7.23046875 14.69921875 C7.22853516 15.99021484 7.22660156 17.28121094 7.22460938 18.61132812 C7.21530396 19.61401733 7.21530396 19.61401733 7.20581055 20.63696289 C7.18746836 22.6910431 7.1853016 24.74467428 7.18554688 26.79882812 C7.14020451 36.85979549 7.14020451 36.85979549 6 38 C3 38.125 3 38.125 0 38 C-1.83219646 36.16780354 -1.23901328 33.24286259 -1.31640625 30.77734375 C-1.37924805 28.88725586 -1.37924805 28.88725586 -1.44335938 26.95898438 C-1.48317596 25.61849264 -1.52288814 24.2779978 -1.5625 22.9375 C-1.60568042 21.59308477 -1.64929456 20.2486834 -1.69335938 18.90429688 C-1.79985358 15.6029766 -1.9018646 12.30157764 -2 9 C-3.65614657 8.61781233 -5.32457024 8.28604898 -7 8 C-8.82729024 9.82729024 -8.21710832 12.72828058 -8.28125 15.1875 C-8.31863281 16.44304687 -8.35601562 17.69859375 -8.39453125 18.9921875 C-8.43023885 20.32811038 -8.46538818 21.66404828 -8.5 23 C-8.56747481 25.60440136 -8.64121369 28.20834932 -8.71875 30.8125 C-8.76418945 32.55466797 -8.76418945 32.55466797 -8.81054688 34.33203125 C-9 37 -9 37 -10 38 C-13 38.125 -13 38.125 -16 38 C-18.60399807 35.39600193 -17.27439047 28.39373716 -17.29516602 24.86401367 C-17.31228728 22.83767593 -17.35613972 20.8130097 -17.40039062 18.78710938 C-17.40876953 17.50255859 -17.41714844 16.21800781 -17.42578125 14.89453125 C-17.44036377 13.71737549 -17.45494629 12.54021973 -17.4699707 11.32739258 C-16.89899736 7.28490134 -15.53712147 5.1631607 -13 2 C-8.7567553 -0.8288298 -4.98265471 -0.65268001 0 0 Z " fill="#FEF5F6" transform="translate(35,52)"/>
<path d="M0 0 C1 1 1 1 1.0625 4.5625 C1.041875 5.696875 1.02125 6.83125 1 8 C2.7015625 7.9690625 2.7015625 7.9690625 4.4375 7.9375 C8 8 8 8 9 9 C9.125 11.5 9.125 11.5 9 14 C8.67 14.33 8.34 14.66 8 15 C5.69 15 3.38 15 1 15 C1.33 22.92 1.66 30.84 2 39 C3.98 39 5.96 39 8 39 C9 40 9 40 9.0625 43.0625 C9.041875 44.031875 9.02125 45.00125 9 46 C-1.09273402 46.62644556 -1.09273402 46.62644556 -4.625 44.1875 C-7.42389694 39.73470941 -7.1297737 35.47056027 -7.09765625 30.39453125 C-7.0962413 29.55532639 -7.09482635 28.71612152 -7.09336853 27.85148621 C-7.08777215 25.17178784 -7.07522035 22.4921731 -7.0625 19.8125 C-7.05748453 17.99544392 -7.05292171 16.17838652 -7.04882812 14.36132812 C-7.03780391 9.90751987 -7.02054178 5.45377411 -7 1 C-4.51588385 -0.24205807 -2.74800896 -0.14092354 0 0 Z " fill="#FEF5F5" transform="translate(127,44)"/>
<path d="M0 0 C3 0.125 3 0.125 4 1.125 C4.10095564 3.77956193 4.13970998 6.40755176 4.1328125 9.0625 C4.13376923 9.857771 4.13472595 10.65304199 4.13571167 11.47241211 C4.13639343 13.1570646 4.13453943 14.84171971 4.13037109 16.52636719 C4.12502275 19.11399197 4.13031619 21.70144316 4.13671875 24.2890625 C4.13605797 25.92187539 4.1347768 27.55468816 4.1328125 29.1875 C4.13483673 29.96665771 4.13686096 30.74581543 4.13894653 31.54858398 C4.11495105 37.01004895 4.11495105 37.01004895 3 38.125 C0 38.25 0 38.25 -3 38.125 C-4.78830448 36.33669552 -4.12848711 33.92918848 -4.13894653 31.54858398 C-4.1369223 30.76942627 -4.13489807 29.99026855 -4.1328125 29.1875 C-4.13376923 28.392229 -4.13472595 27.59695801 -4.13571167 26.77758789 C-4.13639343 25.0929354 -4.13453943 23.40828029 -4.13037109 21.72363281 C-4.12502275 19.13600803 -4.13031619 16.54855684 -4.13671875 13.9609375 C-4.13605797 12.32812461 -4.1347768 10.69531184 -4.1328125 9.0625 C-4.13483673 8.28334229 -4.13686096 7.50418457 -4.13894653 6.70141602 C-4.11025565 0.17126065 -4.11025565 0.17126065 0 0 Z " fill="#FEF6F6" transform="translate(142,51.875)"/>
<path d="M0 0 C2.6875 0.875 2.6875 0.875 5 2 C5.05790353 5.29159316 5.09356261 8.58305603 5.125 11.875 C5.14175781 12.81214844 5.15851563 13.74929687 5.17578125 14.71484375 C5.18222656 15.61074219 5.18867187 16.50664063 5.1953125 17.4296875 C5.20578613 18.25710449 5.21625977 19.08452148 5.22705078 19.93701172 C5 22 5 22 3 24 C-1.55555556 23.44444444 -1.55555556 23.44444444 -3 22 C-3.2776444 18.69561091 -3.23174988 15.37717866 -3.25 12.0625 C-3.270625 11.12986328 -3.29125 10.19722656 -3.3125 9.23632812 C-3.32023437 7.89924805 -3.32023437 7.89924805 -3.328125 6.53515625 C-3.3374707 5.714104 -3.34681641 4.89305176 -3.35644531 4.04711914 C-3.23881836 3.37156982 -3.12119141 2.69602051 -3 2 C-2.01 1.34 -1.02 0.68 0 0 Z " fill="#ED252D" transform="translate(80,59)"/>
<path d="M0 0 C4.70588235 0.70588235 4.70588235 0.70588235 6 2 C6.04080783 3.99958364 6.04254356 6.00045254 6 8 C5.40832031 8.08636719 4.81664063 8.17273438 4.20703125 8.26171875 C0.13914333 8.98504629 -2.58371753 9.70513325 -6 12.125 C-8.63080072 15.90677604 -8.767974 18.43682192 -9 23 C-9.33 23 -9.66 23 -10 23 C-10.99250545 17.29309366 -11.10477512 11.78591511 -11 6 C-8.36 6 -5.72 6 -3 6 C-2.690625 5.195625 -2.38125 4.39125 -2.0625 3.5625 C-1 1 -1 1 0 0 Z " fill="#EE2B33" transform="translate(104,59)"/>
<path d="M0 0 C1 1 1 1 1.0625 4.0625 C1.041875 5.031875 1.02125 6.00125 1 7 C0.40832031 7.08636719 -0.18335938 7.17273438 -0.79296875 7.26171875 C-6.26640325 8.23497219 -9.63120117 9.26262665 -13 14 C-13.88527109 17.68441504 -13.88527109 17.68441504 -14 21 C-14.33 21 -14.66 21 -15 21 C-16.12862175 15.63904667 -16.09688221 10.44693314 -16 5 C-13.36 5 -10.72 5 -8 5 C-7.71125 4.195625 -7.4225 3.39125 -7.125 2.5625 C-5.37314826 -1.42782896 -3.82738684 -1.23464092 0 0 Z " fill="#ED262F" transform="translate(58,60)"/>
<path d="M0 0 C0.94875 0.04125 1.8975 0.0825 2.875 0.125 C3 3 3 3 2.875 6.125 C2.215 6.785 1.555 7.445 0.875 8.125 C-1.75 7.75 -1.75 7.75 -4.125 7.125 C-4.75 4.75 -4.75 4.75 -5.125 2.125 C-3.125 0.125 -3.125 0.125 0 0 Z " fill="#EE2C34" transform="translate(107.125,74.875)"/>
<path d="M0 0 C1.4540625 0.0309375 1.4540625 0.0309375 2.9375 0.0625 C3.0625 2.9375 3.0625 2.9375 2.9375 6.0625 C2.2775 6.7225 1.6175 7.3825 0.9375 8.0625 C-1.6875 7.6875 -1.6875 7.6875 -4.0625 7.0625 C-4.10504356 5.06295254 -4.10330783 3.06208364 -4.0625 1.0625 C-3.0625 0.0625 -3.0625 0.0625 0 0 Z " fill="#ED242D" transform="translate(56.0625,74.9375)"/>
</svg>
